<mxfile host="app.diagrams.net" modified="2023-12-28T15:00:52.343Z" agent="Mozilla/5.0 (Windows NT 10.0; Win64; x64) AppleWebKit/537.36 (KHTML, like Gecko) Chrome/120.0.0.0 Safari/537.36" etag="2nJOyJ_VAWxr1B554X_R" version="22.1.15" type="github">
  <diagram name="Page-1" id="58cdce13-f638-feb5-8d6f-7d28b1aa9fa0">
    <mxGraphModel dx="1434" dy="768" grid="1" gridSize="10" guides="1" tooltips="1" connect="1" arrows="1" fold="1" page="1" pageScale="1" pageWidth="1100" pageHeight="850" background="none" math="0" shadow="0">
      <root>
        <mxCell id="0" />
        <mxCell id="1" parent="0" />
        <mxCell id="XP6XAEMSOJKSHxYJgJJX-1" value="&lt;b&gt;STAN 1&amp;nbsp;&lt;br&gt;&lt;/b&gt;&lt;br&gt;&lt;br&gt;&lt;br&gt;&lt;br&gt;" style="ellipse;whiteSpace=wrap;html=1;aspect=fixed;fillColor=#dae8fc;strokeColor=#6c8ebf;" vertex="1" parent="1">
          <mxGeometry x="190" y="220" width="150" height="150" as="geometry" />
        </mxCell>
        <mxCell id="XP6XAEMSOJKSHxYJgJJX-2" value="&lt;b&gt;STAN 2&lt;/b&gt;&lt;br&gt;&lt;br&gt;Gwałtowne zahamowanie pojazdu (zadanie przyspieszenia wstecz)&lt;br&gt;&lt;b&gt;&amp;nbsp;&lt;/b&gt;" style="ellipse;whiteSpace=wrap;html=1;aspect=fixed;fillColor=#dae8fc;strokeColor=#6c8ebf;" vertex="1" parent="1">
          <mxGeometry x="410" y="220" width="150" height="150" as="geometry" />
        </mxCell>
        <mxCell id="XP6XAEMSOJKSHxYJgJJX-3" value="&lt;b&gt;STAN 3&lt;/b&gt;&lt;br&gt;&lt;br&gt;Zadanie niewielkiej wielkości przyspieszenia w przód &lt;br&gt;(stabilizacja pojazdu)" style="ellipse;whiteSpace=wrap;html=1;aspect=fixed;fillColor=#dae8fc;strokeColor=#6c8ebf;" vertex="1" parent="1">
          <mxGeometry x="410" y="420" width="150" height="150" as="geometry" />
        </mxCell>
        <mxCell id="XP6XAEMSOJKSHxYJgJJX-4" value="&lt;b&gt;STAN 4&amp;nbsp;&lt;/b&gt;&lt;br&gt;&lt;br&gt;Stopniowe zmniejszanie wartości przyspieszenia do 0&amp;nbsp;&lt;br&gt;(Gładkie zatrzymanie)&lt;b&gt;&amp;nbsp;&lt;/b&gt;" style="ellipse;whiteSpace=wrap;html=1;aspect=fixed;fillColor=#dae8fc;strokeColor=#6c8ebf;" vertex="1" parent="1">
          <mxGeometry x="190" y="420" width="150" height="150" as="geometry" />
        </mxCell>
        <mxCell id="XP6XAEMSOJKSHxYJgJJX-6" value="Niezakłócony&lt;br&gt;&amp;nbsp;ruch pojazdu" style="text;html=1;align=center;verticalAlign=middle;resizable=0;points=[];autosize=1;strokeColor=none;fillColor=none;" vertex="1" parent="1">
          <mxGeometry x="215" y="285" width="100" height="40" as="geometry" />
        </mxCell>
        <mxCell id="XP6XAEMSOJKSHxYJgJJX-12" value="" style="endArrow=classic;html=1;rounded=0;exitX=1;exitY=0.5;exitDx=0;exitDy=0;entryX=0;entryY=0.5;entryDx=0;entryDy=0;" edge="1" parent="1" source="XP6XAEMSOJKSHxYJgJJX-1" target="XP6XAEMSOJKSHxYJgJJX-2">
          <mxGeometry width="50" height="50" relative="1" as="geometry">
            <mxPoint x="520" y="470" as="sourcePoint" />
            <mxPoint x="570" y="420" as="targetPoint" />
          </mxGeometry>
        </mxCell>
        <mxCell id="XP6XAEMSOJKSHxYJgJJX-13" value="" style="endArrow=classic;html=1;rounded=0;exitX=0.5;exitY=1;exitDx=0;exitDy=0;entryX=0.5;entryY=0;entryDx=0;entryDy=0;" edge="1" parent="1" source="XP6XAEMSOJKSHxYJgJJX-2" target="XP6XAEMSOJKSHxYJgJJX-3">
          <mxGeometry width="50" height="50" relative="1" as="geometry">
            <mxPoint x="520" y="470" as="sourcePoint" />
            <mxPoint x="570" y="420" as="targetPoint" />
          </mxGeometry>
        </mxCell>
        <mxCell id="XP6XAEMSOJKSHxYJgJJX-14" value="" style="endArrow=classic;html=1;rounded=0;exitX=0;exitY=0.5;exitDx=0;exitDy=0;entryX=1;entryY=0.5;entryDx=0;entryDy=0;" edge="1" parent="1" source="XP6XAEMSOJKSHxYJgJJX-3" target="XP6XAEMSOJKSHxYJgJJX-4">
          <mxGeometry width="50" height="50" relative="1" as="geometry">
            <mxPoint x="520" y="470" as="sourcePoint" />
            <mxPoint x="570" y="420" as="targetPoint" />
          </mxGeometry>
        </mxCell>
        <mxCell id="XP6XAEMSOJKSHxYJgJJX-15" value="" style="endArrow=classic;html=1;rounded=0;exitX=0.5;exitY=0;exitDx=0;exitDy=0;entryX=0.5;entryY=1;entryDx=0;entryDy=0;" edge="1" parent="1" source="XP6XAEMSOJKSHxYJgJJX-4" target="XP6XAEMSOJKSHxYJgJJX-1">
          <mxGeometry width="50" height="50" relative="1" as="geometry">
            <mxPoint x="520" y="470" as="sourcePoint" />
            <mxPoint x="570" y="420" as="targetPoint" />
          </mxGeometry>
        </mxCell>
      </root>
    </mxGraphModel>
  </diagram>
</mxfile>
